<svg version="1.1" id="Layer_1" x="0px" y="0px" width="1400px" height="980px" viewBox="0 0 1400 980" enable-background="new 0 0 1400 980" xmlns="http://www.w3.org/2000/svg">
  <defs></defs>
  <g>
    <rect width="1400" height="980" style="fill: rgb(42, 42, 55); paint-order: stroke; fill-rule: evenodd;"></rect>
    <polygon points="1400,18.791 1092.662,326.127 1186.562,326.354 1400,112.911 	" style="fill: rgb(255, 123, 0); paint-order: stroke; fill-rule: evenodd;"></polygon>
    <polygon points="0,147.112 111.441,147.112 0,258.556 	" fill="#191345" style="paint-order: stroke; fill-rule: evenodd;"></polygon>
    <polygon points="0,537.609 193.072,344.54 247.792,344.54 0,592.332 	" style="fill: rgb(255, 157, 0); paint-order: stroke; fill-rule: evenodd;"></polygon>
    <polygon points="0,427.896 101.106,326.79 228.218,326.79 0,555.008 	" fill="#A5CBEC" style="paint-order: stroke; fill-rule: evenodd;"></polygon>
    <polygon points="102.395,980 607.125,475.272 647.613,475.272 142.885,980 	" style="fill: rgb(248, 138, 12); paint-order: stroke; fill-rule: evenodd;"></polygon>
    <polygon points="694.59,387.931 637.425,444.972 677.913,444.972 735.08,387.931 	" style="fill: rgb(255, 132, 0); paint-order: stroke; fill-rule: evenodd;"></polygon>
    <polygon points="636.319,0 362.579,273.742 307.857,273.742 581.598,0 	" style="fill: rgb(255, 136, 0); paint-order: stroke; fill-rule: evenodd;"></polygon>
    <polygon points="458.522,177.797 362.579,273.742 307.857,273.742 403.806,177.794 	" fill="#191345" style="paint-order: stroke; fill-rule: evenodd;"></polygon>
    <polygon points="399.627,236.694 362.579,273.742 307.857,273.742 344.91,236.69 	" fill="#A5CBEC" style="paint-order: stroke; fill-rule: evenodd;"></polygon>
    <polygon points="0,942.84 467.571,475.272 483.325,475.272 0,958.596 	" fill="#191345" style="paint-order: stroke; fill-rule: evenodd;"></polygon>
    <polygon points="483.325,475.272 467.571,475.272 574.032,368.813 589.786,368.813 	" fill="#A5CBEC" style="paint-order: stroke; fill-rule: evenodd;"></polygon>
    <polygon points="-1.053 335.552 334.659 3.4 428.985 -0.811 1.053 398.701" style="paint-order: stroke; fill-rule: evenodd;"></polygon>
    <polygon points="0,922.77 0,735.949 115.807,620.146 302.627,620.148 	" style="fill: rgb(206, 117, 0); paint-order: stroke; fill-rule: evenodd;"></polygon>
    <polygon points="713.924,0 93.779,620.146 36.083,620.146 656.229,0 	" style="fill: rgb(31, 34, 77); paint-order: stroke; fill-rule: evenodd;"></polygon>
    <polygon points="126.203,980 328.03,778.173 441.488,778.173 239.661,980 	" fill="#191345" style="paint-order: stroke; fill-rule: evenodd;"></polygon>
    <polygon points="670.583,730.006 792.94,607.647 906.398,607.647 784.041,730.006 	" fill="#191345" style="paint-order: stroke; fill-rule: evenodd;"></polygon>
    <polygon points="324.535,676.343 20.879,980 37.134,980 340.791,676.343 	" fill="#0088CE" style="paint-order: stroke; fill-rule: evenodd;"></polygon>
    <polygon points="445.563,268.362 315.481,398.446 257.785,398.443 387.867,268.362 	" fill="#A5CBEC" style="paint-order: stroke; fill-rule: evenodd;"></polygon>
    <polygon points="762.318,0 463.033,299.288 436.616,299.288 735.901,0 	" style="fill: rgb(60, 138, 228); paint-order: stroke; fill-rule: evenodd;"></polygon>
    <polygon points="660.499,789.874 927.732,522.639 913.258,522.639 646.019,789.874 	" fill="#A5CBEC" style="paint-order: stroke; fill-rule: evenodd;"></polygon>
    <polygon points="175.928,980 464.023,691.908 487.543,691.908 199.449,980 	" fill="#A5CBEC" style="paint-order: stroke; fill-rule: evenodd;"></polygon>
    <polygon points="0,314.012 93.831,220.183 115.54,220.183 0,335.723 	" fill="#A5CBEC" style="paint-order: stroke; fill-rule: evenodd;"></polygon>
    <polygon points="214.305 1.053 188.409 31.16 103.806 99.975 96.259 157.87 269.917 -1.052" fill="#191345" style="paint-order: stroke; fill-rule: evenodd;"></polygon>
    <path style="fill: rgb(255, 247, 0); paint-order: stroke; fill-rule: evenodd;" d="M 513.955 2.106 L 182.139 309.714 C 142.214 292.867 125.557 288.654 125.557 288.654 L 427.896 0 L 513.955 2.106 Z"></path>
    <polygon points="79.762,0 0,79.765 0,173.604 173.601,0 	" style="paint-order: stroke; fill-rule: evenodd;"></polygon>
    <polygon points="433.316,86.791 73.708,446.4 51.998,446.4 411.608,86.791 	" style="fill: rgb(0, 12, 91); paint-order: stroke; fill-rule: evenodd;"></polygon>
    <polygon points="842.354,422.465 698.03,566.789 689.316,566.789 833.639,422.465 	" style="fill: rgb(4, 152, 244); paint-order: stroke; fill-rule: evenodd;"></polygon>
    <polygon points="276.105,980 284.819,980 640.089,624.729 631.374,624.729 	" fill="#191345" style="paint-order: stroke; fill-rule: evenodd;"></polygon>
    <polygon points="1400,195.91 1068.164,527.746 1076.879,527.746 1400,204.625 	" fill="#191345" style="paint-order: stroke; fill-rule: evenodd;"></polygon>
    <polygon points="1144.666,522.639 1021.459,645.847 1030.174,645.847 1153.381,522.639 	" style="fill: rgb(248, 167, 15); paint-order: stroke; fill-rule: evenodd;"></polygon>
    <polygon points="687.306,980 696.021,980 753.795,922.225 745.08,922.225 	" fill="#191345" style="paint-order: stroke; fill-rule: evenodd;"></polygon>
    <polygon points="539.568,980 1400,119.568 1400,110.854 530.855,980 	" style="fill: rgb(229, 237, 6); paint-order: stroke; fill-rule: evenodd;"></polygon>
    <polygon points="1400,689.025 1400,680.312 1100.312,980 1109.025,980 	" fill="#0088CE" style="paint-order: stroke; fill-rule: evenodd;"></polygon>
    <polygon points="179.852,227.732 169.593,227.732 268.364,128.961 278.623,128.961 	" style="paint-order: stroke; fill-rule: evenodd; fill: rgba(0, 0, 0, 0.58);"></polygon>
    <polygon points="142.535,122.08 132.276,122.08 201.319,53.035 211.578,53.035 	" style="paint-order: stroke; fill-rule: evenodd;"></polygon>
    <polygon points="579.326,475.272 336.878,717.721 328.165,717.721 570.612,475.272 	" fill="#A5CBEC" style="paint-order: stroke; fill-rule: evenodd;"></polygon>
    <polygon points="825.58,475.272 947.23,353.623 938.518,353.623 816.867,475.272 	" style="fill: rgb(206, 206, 0); paint-order: stroke; fill-rule: evenodd;"></polygon>
    <polygon points="311.365,313.935 229.087,396.214 220.373,396.214 302.651,313.935 	" fill="#191345" style="paint-order: stroke; fill-rule: evenodd;"></polygon>
    <polygon points="0,625.301 229.087,396.214 220.373,396.214 0,616.587 	" fill="#A5CBEC" style="paint-order: stroke; fill-rule: evenodd;"></polygon>
    <polygon points="13.664,391.812 89.346,316.131 98.059,316.131 22.376,391.812 	" style="fill: rgb(255, 247, 0); paint-order: stroke; fill-rule: evenodd;"></polygon>
    <polygon points="745.626,257.337 434.736,568.227 413.026,568.227 723.918,257.337 	" fill="#0088CE" style="paint-order: stroke; fill-rule: evenodd;"></polygon>
    <polygon points="1013.635,170.254 816.51,367.378 802.743,367.378 999.87,170.254 	" fill="#191345" style="paint-order: stroke; fill-rule: evenodd;"></polygon>
    <polygon points="760.568,170.254 703.082,227.739 689.316,227.739 746.803,170.254 	" style="fill: rgb(227, 159, 0); paint-order: stroke; fill-rule: evenodd;"></polygon>
    <polygon points="1072.748,0 929.994,142.755 918.961,142.755 1061.717,0 	" fill="#ED0677" style="paint-order: stroke; fill-rule: evenodd;"></polygon>
    <polygon points="0 150.27 159.422 1.372 213.09 1.372 0 204.99" style="fill: rgb(218, 226, 55); paint-order: stroke; fill-rule: evenodd;"></polygon>
    <polygon points="0,896.547 228.658,667.889 238.026,667.889 0,905.918 	" fill="#A5CBEC" style="paint-order: stroke; fill-rule: evenodd;"></polygon>
    <polygon points="0,283.71 93.662,190.048 103.03,190.048 0,293.077 	" fill="#A5CBEC" style="paint-order: stroke; fill-rule: evenodd;"></polygon>
    <polygon points="0,174.238 59.09,115.147 68.458,115.147 0,183.604 	" style="paint-order: stroke; fill-rule: evenodd;"></polygon>
    <polygon points="0,467.133 467.136,0 477.599,0 0,477.601 	" fill="#0088CE" style="paint-order: stroke; fill-rule: evenodd;"></polygon>
    <polygon points="343.569,530.469 152.71,721.332 99.741,721.332 290.605,530.469 	" fill="#191345" style="paint-order: stroke; fill-rule: evenodd;"></polygon>
    <polygon points="996.188,980 1400,576.181 1400,507.734 927.732,980 	" style="fill: rgb(225, 218, 31); paint-order: stroke; fill-rule: evenodd;"></polygon>
    <polygon points="152.708,721.332 95.64,778.402 42.67,778.402 99.741,721.332 	" style="fill: rgb(6, 175, 237); paint-order: stroke; fill-rule: evenodd;"></polygon>
    <polygon points="430.933,443.108 373.864,500.178 320.895,500.178 377.965,443.108 	" style="fill: rgb(69, 150, 255); paint-order: stroke; fill-rule: evenodd;"></polygon>
    <polygon points="476.321 396.669 446.94 426.052 393.971 426.052 423.353 396.669" style="fill: rgb(236, 248, 0); paint-order: stroke; fill-rule: evenodd;"></polygon>
    <polygon points="615.879,258.164 523.932,350.111 470.963,350.111 562.911,258.164 	" fill="#191345" style="paint-order: stroke; fill-rule: evenodd;"></polygon>
    <polygon points="335.724 0 218.38 111.03 173.511 93.136 270.856 1.053" style="fill: rgb(247, 255, 0); paint-order: stroke; fill-rule: evenodd;"></polygon>
    <polygon points="219.364,116.358 73.708,262.016 51.998,262.016 197.655,116.358 	" fill="#191345" style="paint-order: stroke; fill-rule: evenodd;"></polygon>
    <polygon points="395.076,318.848 264.995,448.932 207.298,448.932 337.38,318.848 	" style="fill: rgb(199, 206, 0); paint-order: stroke; fill-rule: evenodd;"></polygon>
    <polygon points="0,688.768 127.887,560.879 136.504,560.879 0,697.383 	" style="fill: rgb(243, 255, 17); paint-order: stroke; fill-rule: evenodd;"></polygon>
    <polygon points="449.336,0 271.539,177.8 264.504,177.8 442.303,0 	" fill="#A5CBEC" style="paint-order: stroke; fill-rule: evenodd;"></polygon>
    <polygon points="0,514.607 44.4,470.204 105.112,470.204 0,575.316 	" fill="#191345" style="paint-order: stroke; fill-rule: evenodd;"></polygon>
    <polygon points="0,764.885 63.101,701.785 86.62,701.785 0,788.406 	" style="fill: rgb(67, 153, 229); paint-order: stroke; fill-rule: evenodd;"></polygon>
    <path style="stroke: rgb(0, 0, 0); fill: rgb(224, 235, 10);" d="M 170.526 93.45 L 218.947 107.135 L 2.105 328.187 L 0 261.871 L 170.526 93.45 Z"></path>
  </g>
  <path style="stroke: rgb(0, 0, 0);" d="M 63.158 142.924 L 104.211 145.029 L 183.158 61.871 L 143.157 61.871"></path>
</svg>
