<svg xmlns="http://www.w3.org/2000/svg" version="1.1" xmlns:xlink="http://www.w3.org/1999/xlink" xmlns:svgjs="http://svgjs.com/svgjs" width="1920" height="1080" preserveAspectRatio="none" viewBox="0 0 1920 1080"><g mask="url(&quot;#SvgjsMask1213&quot;)" fill="none"><rect width="1920" height="1080" x="0" y="0" fill="url(#SvgjsLinearGradient1214)"></rect><path d="M1920 0L1238.95 0L1920 49.55z" fill="rgba(255, 255, 255, .1)"></path><path d="M1238.95 0L1920 49.55L1920 156.51999999999998L1146.54 0z" fill="rgba(255, 255, 255, .075)"></path><path d="M1146.54 0L1920 156.51999999999998L1920 334.26L924.3599999999999 0z" fill="rgba(255, 255, 255, .05)"></path><path d="M924.3600000000001 0L1920 334.26L1920 616.52L317.1600000000001 0z" fill="rgba(255, 255, 255, .025)"></path><path d="M0 1080L824.78 1080L0 574.0799999999999z" fill="rgba(0, 0, 0, .1)"></path><path d="M0 574.0799999999999L824.78 1080L1283.35 1080L0 328.7399999999999z" fill="rgba(0, 0, 0, .075)"></path><path d="M0 328.74L1283.35 1080L1672.2199999999998 1080L0 150.61z" fill="rgba(0, 0, 0, .05)"></path><path d="M0 150.61L1672.2199999999998 1080L1721.6699999999998 1080L0 107.27000000000001z" fill="rgba(0, 0, 0, .025)"></path></g><defs><mask id="SvgjsMask1213"><rect width="1920" height="1080" fill="#ffffff"></rect></mask><linearGradient x1="89.06%" y1="-19.44%" x2="10.94%" y2="119.44%" gradientUnits="userSpaceOnUse" id="SvgjsLinearGradient1214"><stop stop-color="#0e2a47" offset="0"></stop><stop stop-color="rgba(71, 133, 214, 1)" offset="1"></stop></linearGradient></defs></svg>