<svg xmlns="http://www.w3.org/2000/svg" version="1.1" xmlns:xlink="http://www.w3.org/1999/xlink" xmlns:svgjs="http://svgjs.com/svgjs" width="1920" height="1080" preserveAspectRatio="none" viewBox="0 0 1920 1080"><g mask="url(&quot;#SvgjsMask1459&quot;)" fill="none"><rect width="1920" height="1080" x="0" y="0" fill="url(#SvgjsLinearGradient1460)"></rect><path d="M1920 0L1074.0700000000002 0L1920 407.38z" fill="rgba(255, 255, 255, .1)"></path><path d="M1074.0700000000002 0L1920 407.38L1920 654.04L516.8500000000001 0z" fill="rgba(255, 255, 255, .075)"></path><path d="M516.8499999999999 0L1920 654.04L1920 706.13L360.6599999999999 0z" fill="rgba(255, 255, 255, .05)"></path><path d="M360.65999999999985 0L1920 706.13L1920 970.64L141.43999999999986 0z" fill="rgba(255, 255, 255, .025)"></path><path d="M0 1080L53.96 1080L0 952.49z" fill="rgba(0, 0, 0, .1)"></path><path d="M0 952.49L53.96 1080L856.22 1080L0 871.97z" fill="rgba(0, 0, 0, .075)"></path><path d="M0 871.97L856.22 1080L1114.04 1080L0 333.45000000000005z" fill="rgba(0, 0, 0, .05)"></path><path d="M0 333.45000000000005L1114.04 1080L1192.47 1080L0 248.20000000000005z" fill="rgba(0, 0, 0, .025)"></path></g><defs><mask id="SvgjsMask1459"><rect width="1920" height="1080" fill="#ffffff"></rect></mask><linearGradient x1="50%" y1="0%" x2="50%" y2="100%" gradientUnits="userSpaceOnUse" id="SvgjsLinearGradient1460"><stop stop-color="#0e2a47" offset="0"></stop><stop stop-color="rgba(18, 19, 20, 1)" offset="1"></stop></linearGradient></defs></svg>